{
  "title": "Run.All.Night.2015.CAM.Rip.XviD-FANTA",
  "uid": 11822241,
  "size": 1714398984,
  "categoryP": "video",
  "categoryS": "movies",
  "magnet": "?xt=urn:btih:e1355b8687ae4dc937280f85b21093c425387fa6&amp;dn=Run.All.Night.2015.CAM.Rip.XviD-FANTA&amp;tr=udp%3A%2F%2Ftracker.openbittorrent.com%3A80&amp;tr=udp%3A%2F%2Fopen.demonii.com%3A1337&amp;tr=udp%3A%2F%2Ftracker.coppersurfer.tk%3A6969&amp;tr=udp%3A%2F%2Fexodus.desync.com%3A6969",
  "seeders": 78,
  "leechers": 16,
  "uploader": "xxxlavalxxx",
  "files": 4,
  "time": 1429305428,
  "description": "[url=http://extraimago.com/image/w2o][img]http://extraimago.com/images/2015/04/06/Run-All-Night-Poster.jpg[/img][/url]\n &lt;a href=&quot;\nhttp://www.imdb.com/title/tt2199571/&quot; rel=&quot;nofollow&quot; target=&quot;_NEW&quot;&gt;\nhttp://www.imdb.com/title/tt2199571/&lt;/a&gt;\n\n\nMobster and hit man Jimmy Conlon has one night to figure out where his loyalties lie: with his estranged son, Mike, whose life is in danger, or his longtime best friend, mob boss Shawn Maguire, who wants Mike to pay for the death of his own son.\n\nDirector: Jaume Collet-Serra\nWriter: Brad Ingelsby\nStars: Liam Neeson, Ed Harris, Joel Kinnaman \nGenres: Action | Crime | Drama | Mystery | Thriller\nCountry: USA\nLanguage: English\n\n\nFormat                                   : AVI\nFormat/Info                              : Audio Video Interleave\nFormat profile                           : OpenDML\nFormat settings                          : rec\nFile size                                : 1.58 GiB\nDuration                                 : 1h 48mn\nOverall bit rate                         : 2 088 Kbps\nWriting application                      : AVI-Mux GUI 1.17.8.3, Feb 16 201019:42:50\n\nVideo\nID                                       : 0\nFormat                                   : MPEG-4 Visual\nFormat profile                           : Advanced Simple@L5\nFormat settings, BVOP                    : 2\nFormat settings, QPel                    : No\nFormat settings, GMC                     : No warppoints\nFormat settings, Matrix                  : Default (H.263)\nMuxing mode                              : Packed bitstream\nCodec ID                                 : XVID\nCodec ID/Hint                            : XviD\nDuration                                 : 1h 48mn\nBit rate                                 : 1 890 Kbps\nWidth                                    : 656 pixels\nHeight                                   : 288 pixels\nDisplay aspect ratio                     : 2.25:1\nFrame rate                               : 29.970 fps\nColor space                              : YUV\nChroma subsampling                       : 4:2:0\nBit depth                                : 8 bits\nScan type                                : Progressive\nCompression mode                         : Lossy\nBits/(Pixel*Frame)                       : 0.334\nStream size                              : 1.43 GiB (91%)\nWriting library                          : XviD 64\n\nAudio\nID                                       : 1\nFormat                                   : AC-3\nFormat/Info                              : Audio Coding 3\nMode extension                           : CM (complete main)\nFormat settings, Endianness              : Big\nCodec ID                                 : 2000\nDuration                                 : 1h 48mn\nBit rate mode                            : Constant\nBit rate                                 : 192 Kbps\nChannel(s)                               : 2 channels\nChannel positions                        : Front: L R\nSampling rate                            : 48.0 KHz\nBit depth                                : 16 bits\nCompression mode                         : Lossy\nStream size                              : 149 MiB (9%)\nAlignment                                : Aligned on interleaves\nInterleave, duration                     : 64 ms (1.92 video frames)\nInterleave, preload duration             : 192 ms\nTitle                                    : Run All Night (2015)\n &lt;a href=&quot;\nhttp://extraimago.com/image/w4Y&quot; rel=&quot;nofollow&quot; target=&quot;_NEW&quot;&gt;\nhttp://extraimago.com/image/w4Y&lt;/a&gt; &lt;a href=&quot;\nhttp://extraimago.com/image/w4p&quot; rel=&quot;nofollow&quot; target=&quot;_NEW&quot;&gt;\nhttp://extraimago.com/image/w4p&lt;/a&gt; &lt;a href=&quot;\nhttp://extraimago.com/image/w4r&quot; rel=&quot;nofollow&quot; target=&quot;_NEW&quot;&gt;\nhttp://extraimago.com/image/w4r&lt;/a&gt; &lt;a href=&quot;\nhttp://extraimago.com/image/w4G&quot; rel=&quot;nofollow&quot; target=&quot;_NEW&quot;&gt;\nhttp://extraimago.com/image/w4G&lt;/a&gt; &lt;a href=&quot;\nhttp://extraimago.com/image/w4P&quot; rel=&quot;nofollow&quot; target=&quot;_NEW&quot;&gt;\nhttp://extraimago.com/image/w4P&lt;/a&gt; &lt;a href=&quot;\nhttp://extraimago.com/image/w4X&quot; rel=&quot;nofollow&quot; target=&quot;_NEW&quot;&gt;\nhttp://extraimago.com/image/w4X&lt;/a&gt; &lt;a href=&quot;\nhttp://extraimago.com/image/w4g&quot; rel=&quot;nofollow&quot; target=&quot;_NEW&quot;&gt;\nhttp://extraimago.com/image/w4g&lt;/a&gt;",
  "parsed": {
    "xt": "urn:btih:e1355b8687ae4dc937280f85b21093c425387fa6",
    "dn": "Run.All.Night.2015.CAM.Rip.XviD-FANTA",
    "tr": [
      "udp://exodus.desync.com:6969",
      "udp://open.demonii.com:1337",
      "udp://tracker.coppersurfer.tk:6969",
      "udp://tracker.openbittorrent.com:80"
    ],
    "infoHash": "e1355b8687ae4dc937280f85b21093c425387fa6",
    "infoHashBuffer": {
      "type": "Buffer",
      "data": [
        225,
        53,
        91,
        134,
        135,
        174,
        77,
        201,
        55,
        40,
        15,
        133,
        178,
        16,
        147,
        196,
        37,
        56,
        127,
        166
      ]
    },
    "name": "Run.All.Night.2015.CAM.Rip.XviD-FANTA",
    "announce": [
      "udp://exodus.desync.com:6969",
      "udp://open.demonii.com:1337",
      "udp://tracker.coppersurfer.tk:6969",
      "udp://tracker.openbittorrent.com:80"
    ],
    "urlList": []
  },
  "previous": 94,
  "peers": 2,
  "last_updated": "2016-12-25T16:12:55.385Z"
}